{
	"asset":{
		"generator":"Khronos glTF Blender I/O v4.0.44",
		"version":"2.0"
	},
	"scene":0,
	"scenes":[
		{
			"name":"Scene",
			"nodes":[
				0,
				1,
				2,
				3,
				4,
				5,
				6
			]
		}
	],
	"nodes":[
		{
			"mesh":0,
			"name":"capat",
			"scale":[
				2.578641176223755,
				2.578641176223755,
				2.578641176223755
			],
			"translation":[
				-4.672893047332764,
				3.431299924850464,
				0
			]
		},
		{
			"mesh":1,
			"name":"capat_maneta",
			"rotation":[
				0,
				0,
				1,
				1.6292068494294654e-07
			],
			"scale":[
				2.578641176223755,
				2.578641176223755,
				2.578641176223755
			],
			"translation":[
				6.189702987670898,
				3.431299924850464,
				0
			]
		},
		{
			"mesh":2,
			"name":"ROLA1",
			"rotation":[
				0.6496670246124268,
				-0.6496670842170715,
				0.27916431427001953,
				0.2791643440723419
			],
			"scale":[
				-2.7689013481140137,
				-0.9330121278762817,
				-2.7689013481140137
			],
			"translation":[
				-2.901372194290161,
				3.431299924850464,
				-0.03766699880361557
			]
		},
		{
			"mesh":3,
			"name":"ROLA2",
			"rotation":[
				0.6496670246124268,
				-0.6496670842170715,
				0.27916431427001953,
				0.2791643440723419
			],
			"scale":[
				-2.7689013481140137,
				-0.9330121278762817,
				-2.7689013481140137
			],
			"translation":[
				-1.0662919282913208,
				3.4313015937805176,
				-0.03766653686761856
			]
		},
		{
			"mesh":4,
			"name":"ROLA3",
			"rotation":[
				0.6496670246124268,
				-0.6496670842170715,
				0.27916431427001953,
				0.2791643440723419
			],
			"scale":[
				-2.7689013481140137,
				-0.9330121278762817,
				-2.7689013481140137
			],
			"translation":[
				0.7710022926330566,
				3.4313015937805176,
				-0.03766653686761856
			]
		},
		{
			"mesh":5,
			"name":"ROLA4",
			"rotation":[
				0.6496670246124268,
				-0.6496670842170715,
				0.27916431427001953,
				0.2791643440723419
			],
			"scale":[
				-2.7689013481140137,
				-0.9330121278762817,
				-2.7689013481140137
			],
			"translation":[
				2.5994579792022705,
				3.4313015937805176,
				-0.03766653686761856
			]
		},
		{
			"mesh":6,
			"name":"ROLA5",
			"rotation":[
				0.6496670246124268,
				-0.6496670842170715,
				0.27916431427001953,
				0.2791643440723419
			],
			"scale":[
				-2.7689013481140137,
				-0.9330121278762817,
				-2.7689013481140137
			],
			"translation":[
				4.434365272521973,
				3.4313015937805176,
				-0.03766653686761856
			]
		}
	],
	"materials":[
		{
			"doubleSided":true,
			"name":"rola_mica",
			"pbrMetallicRoughness":{
				"baseColorFactor":[
					0.0034420071169734,
					0.021880872547626495,
					0.07630652189254761,
					1
				],
				"metallicFactor":0.694656491279602
			}
		},
		{
			"doubleSided":true,
			"name":"metal",
			"pbrMetallicRoughness":{
				"baseColorFactor":[
					0.14289508759975433,
					0.14289508759975433,
					0.14289508759975433,
					1
				],
				"metallicFactor":0.8396946787834167,
				"roughnessFactor":0.23664122819900513
			}
		},
		{
			"doubleSided":true,
			"name":"rola1",
			"pbrMetallicRoughness":{
				"baseColorTexture":{
					"index":0
				},
				"metallicFactor":0
			}
		},
		{
			"doubleSided":true,
			"name":"rola2",
			"pbrMetallicRoughness":{
				"baseColorTexture":{
					"index":1
				},
				"metallicFactor":0
			}
		},
		{
			"doubleSided":true,
			"name":"rola3",
			"pbrMetallicRoughness":{
				"baseColorTexture":{
					"index":2
				},
				"metallicFactor":0
			}
		},
		{
			"doubleSided":true,
			"name":"rola4",
			"pbrMetallicRoughness":{
				"baseColorTexture":{
					"index":3
				},
				"metallicFactor":0
			}
		},
		{
			"doubleSided":true,
			"name":"rola5",
			"pbrMetallicRoughness":{
				"baseColorTexture":{
					"index":4
				},
				"metallicFactor":0
			}
		}
	],
	"meshes":[
		{
			"name":"Cylinder.012",
			"primitives":[
				{
					"attributes":{
						"POSITION":0,
						"NORMAL":1,
						"TEXCOORD_0":2
					},
					"indices":3,
					"material":0
				}
			]
		},
		{
			"name":"Cylinder.013",
			"primitives":[
				{
					"attributes":{
						"POSITION":4,
						"NORMAL":5,
						"TEXCOORD_0":6
					},
					"indices":7,
					"material":0
				},
				{
					"attributes":{
						"POSITION":8,
						"NORMAL":9,
						"TEXCOORD_0":10
					},
					"indices":11,
					"material":1
				}
			]
		},
		{
			"name":"Cylinder.004",
			"primitives":[
				{
					"attributes":{
						"POSITION":12,
						"NORMAL":13,
						"TEXCOORD_0":14
					},
					"indices":15,
					"material":2
				}
			]
		},
		{
			"name":"Cylinder.001",
			"primitives":[
				{
					"attributes":{
						"POSITION":16,
						"NORMAL":17,
						"TEXCOORD_0":18
					},
					"indices":15,
					"material":3
				}
			]
		},
		{
			"name":"Cylinder.002",
			"primitives":[
				{
					"attributes":{
						"POSITION":19,
						"NORMAL":20,
						"TEXCOORD_0":21
					},
					"indices":15,
					"material":4
				}
			]
		},
		{
			"name":"Cylinder.005",
			"primitives":[
				{
					"attributes":{
						"POSITION":22,
						"NORMAL":23,
						"TEXCOORD_0":24
					},
					"indices":15,
					"material":5
				}
			]
		},
		{
			"name":"Cylinder.006",
			"primitives":[
				{
					"attributes":{
						"POSITION":25,
						"NORMAL":26,
						"TEXCOORD_0":27
					},
					"indices":15,
					"material":6
				}
			]
		}
	],
	"textures":[
		{
			"sampler":0,
			"source":0
		},
		{
			"sampler":0,
			"source":1
		},
		{
			"sampler":0,
			"source":2
		},
		{
			"sampler":0,
			"source":3
		},
		{
			"sampler":0,
			"source":4
		}
	],
	"images":[
		{
			"mimeType":"image/png",
			"name":"rola1",
			"uri":"tex/rola1.png"
		},
		{
			"mimeType":"image/png",
			"name":"rola2",
			"uri":"tex/rola2.png"
		},
		{
			"mimeType":"image/png",
			"name":"rola3",
			"uri":"tex/rola3.png"
		},
		{
			"mimeType":"image/png",
			"name":"rola4",
			"uri":"tex/rola4.png"
		},
		{
			"mimeType":"image/png",
			"name":"rola5",
			"uri":"tex/rola5.png"
		}
	],
	"accessors":[
		{
			"bufferView":0,
			"componentType":5126,
			"count":328,
			"max":[
				0.32334116101264954,
				1.091160535812378,
				1.091160535812378
			],
			"min":[
				-0.23848047852516174,
				-1.0911604166030884,
				-1.091160535812378
			],
			"type":"VEC3"
		},
		{
			"bufferView":1,
			"componentType":5126,
			"count":328,
			"type":"VEC3"
		},
		{
			"bufferView":2,
			"componentType":5126,
			"count":328,
			"type":"VEC2"
		},
		{
			"bufferView":3,
			"componentType":5123,
			"count":948,
			"type":"SCALAR"
		},
		{
			"bufferView":4,
			"componentType":5126,
			"count":1047,
			"max":[
				0.32334116101264954,
				1.091160535812378,
				1.1198674440383911
			],
			"min":[
				-0.5066717267036438,
				-1.652843713760376,
				-1.091160535812378
			],
			"type":"VEC3"
		},
		{
			"bufferView":5,
			"componentType":5126,
			"count":1047,
			"type":"VEC3"
		},
		{
			"bufferView":6,
			"componentType":5126,
			"count":1047,
			"type":"VEC2"
		},
		{
			"bufferView":7,
			"componentType":5123,
			"count":4404,
			"type":"SCALAR"
		},
		{
			"bufferView":8,
			"componentType":5126,
			"count":130,
			"max":[
				-0.3275722861289978,
				-0.1774899661540985,
				0.9752185940742493
			],
			"min":[
				-0.4223824441432953,
				-1.4671790599822998,
				0.09908050298690796
			],
			"type":"VEC3"
		},
		{
			"bufferView":9,
			"componentType":5126,
			"count":130,
			"type":"VEC3"
		},
		{
			"bufferView":10,
			"componentType":5126,
			"count":130,
			"type":"VEC2"
		},
		{
			"bufferView":11,
			"componentType":5123,
			"count":372,
			"type":"SCALAR"
		},
		{
			"bufferView":12,
			"componentType":5126,
			"count":448,
			"max":[
				1,
				1,
				1
			],
			"min":[
				-1,
				-1,
				-1
			],
			"type":"VEC3"
		},
		{
			"bufferView":13,
			"componentType":5126,
			"count":448,
			"type":"VEC3"
		},
		{
			"bufferView":14,
			"componentType":5126,
			"count":448,
			"type":"VEC2"
		},
		{
			"bufferView":15,
			"componentType":5123,
			"count":1140,
			"type":"SCALAR"
		},
		{
			"bufferView":16,
			"componentType":5126,
			"count":448,
			"max":[
				1,
				1,
				1
			],
			"min":[
				-1,
				-1,
				-1
			],
			"type":"VEC3"
		},
		{
			"bufferView":17,
			"componentType":5126,
			"count":448,
			"type":"VEC3"
		},
		{
			"bufferView":18,
			"componentType":5126,
			"count":448,
			"type":"VEC2"
		},
		{
			"bufferView":19,
			"componentType":5126,
			"count":448,
			"max":[
				1,
				1,
				1
			],
			"min":[
				-1,
				-1,
				-1
			],
			"type":"VEC3"
		},
		{
			"bufferView":20,
			"componentType":5126,
			"count":448,
			"type":"VEC3"
		},
		{
			"bufferView":21,
			"componentType":5126,
			"count":448,
			"type":"VEC2"
		},
		{
			"bufferView":22,
			"componentType":5126,
			"count":448,
			"max":[
				1,
				1,
				1
			],
			"min":[
				-1,
				-1,
				-1
			],
			"type":"VEC3"
		},
		{
			"bufferView":23,
			"componentType":5126,
			"count":448,
			"type":"VEC3"
		},
		{
			"bufferView":24,
			"componentType":5126,
			"count":448,
			"type":"VEC2"
		},
		{
			"bufferView":25,
			"componentType":5126,
			"count":448,
			"max":[
				1,
				1,
				1
			],
			"min":[
				-1,
				-1,
				-1
			],
			"type":"VEC3"
		},
		{
			"bufferView":26,
			"componentType":5126,
			"count":448,
			"type":"VEC3"
		},
		{
			"bufferView":27,
			"componentType":5126,
			"count":448,
			"type":"VEC2"
		}
	],
	"bufferViews":[
		{
			"buffer":0,
			"byteLength":3936,
			"byteOffset":0,
			"target":34962
		},
		{
			"buffer":0,
			"byteLength":3936,
			"byteOffset":3936,
			"target":34962
		},
		{
			"buffer":0,
			"byteLength":2624,
			"byteOffset":7872,
			"target":34962
		},
		{
			"buffer":0,
			"byteLength":1896,
			"byteOffset":10496,
			"target":34963
		},
		{
			"buffer":0,
			"byteLength":12564,
			"byteOffset":12392,
			"target":34962
		},
		{
			"buffer":0,
			"byteLength":12564,
			"byteOffset":24956,
			"target":34962
		},
		{
			"buffer":0,
			"byteLength":8376,
			"byteOffset":37520,
			"target":34962
		},
		{
			"buffer":0,
			"byteLength":8808,
			"byteOffset":45896,
			"target":34963
		},
		{
			"buffer":0,
			"byteLength":1560,
			"byteOffset":54704,
			"target":34962
		},
		{
			"buffer":0,
			"byteLength":1560,
			"byteOffset":56264,
			"target":34962
		},
		{
			"buffer":0,
			"byteLength":1040,
			"byteOffset":57824,
			"target":34962
		},
		{
			"buffer":0,
			"byteLength":744,
			"byteOffset":58864,
			"target":34963
		},
		{
			"buffer":0,
			"byteLength":5376,
			"byteOffset":59608,
			"target":34962
		},
		{
			"buffer":0,
			"byteLength":5376,
			"byteOffset":64984,
			"target":34962
		},
		{
			"buffer":0,
			"byteLength":3584,
			"byteOffset":70360,
			"target":34962
		},
		{
			"buffer":0,
			"byteLength":2280,
			"byteOffset":73944,
			"target":34963
		},
		{
			"buffer":0,
			"byteLength":5376,
			"byteOffset":76224,
			"target":34962
		},
		{
			"buffer":0,
			"byteLength":5376,
			"byteOffset":81600,
			"target":34962
		},
		{
			"buffer":0,
			"byteLength":3584,
			"byteOffset":86976,
			"target":34962
		},
		{
			"buffer":0,
			"byteLength":5376,
			"byteOffset":90560,
			"target":34962
		},
		{
			"buffer":0,
			"byteLength":5376,
			"byteOffset":95936,
			"target":34962
		},
		{
			"buffer":0,
			"byteLength":3584,
			"byteOffset":101312,
			"target":34962
		},
		{
			"buffer":0,
			"byteLength":5376,
			"byteOffset":104896,
			"target":34962
		},
		{
			"buffer":0,
			"byteLength":5376,
			"byteOffset":110272,
			"target":34962
		},
		{
			"buffer":0,
			"byteLength":3584,
			"byteOffset":115648,
			"target":34962
		},
		{
			"buffer":0,
			"byteLength":5376,
			"byteOffset":119232,
			"target":34962
		},
		{
			"buffer":0,
			"byteLength":5376,
			"byteOffset":124608,
			"target":34962
		},
		{
			"buffer":0,
			"byteLength":3584,
			"byteOffset":129984,
			"target":34962
		}
	],
	"samplers":[
		{
			"magFilter":9729,
			"minFilter":9987
		}
	],
	"buffers":[
		{
			"byteLength":133568,
			"uri":"reel_nou.bin"
		}
	]
}
